PathFileType	4	(X/Y/Z)	./resultDataOpenSim/trcMotMarkerGrf/sub09/qtm-14-03.trc
DataRate	CameraRate	NumFrames	NumMarkers	Units	OrigDataRate	OrigDataStartFrame	OrigNumFrames
250.000000	250.000000	10	24	m	250.000000	61	486
Frame#	Time	L.Toe.Tip			R.Toe.Tip			L.Ankle.Lat			R.Ankle.Lat			L.Ankle.Med			R.Ankle.Med			L.Heel			R.Heel			L.Knee.Lat			R.Knee.Lat			L.Knee.Med			R.Knee.Med			L.Thigh.Upper			R.Thigh.Upper			L.ASIS			R.ASIS			V.Sacral			L.Acromium			R.Acromium			C7			L.Elbow			R.Elbow			L.Wrist.Lat			R.Wrist.Lat
		X1	Y1	Z1	X2	Y2	Z2	X3	Y3	Z3	X4	Y4	Z4	X5	Y5	Z5	X6	Y6	Z6	X7	Y7	Z7	X8	Y8	Z8	X9	Y9	Z9	X10	Y10	Z10	X11	Y11	Z11	X12	Y12	Z12	X13	Y13	Z13	X14	Y14	Z14	X15	Y15	Z15	X16	Y16	Z16	X17	Y17	Z17	X18	Y18	Z18	X19	Y19	Z19	X20	Y20	Z20	X21	Y21	Z21	X22	Y22	Z22	X23	Y23	Z23	X24	Y24	Z24

61	0.24	-1.3015759	0.096134165	-0.027510969	-0.60350484	0.038895866	0.1414719	-1.3218073	0.25207491	-0.057842373	-0.75124527	0.054752473	0.17198559	-1.2985712	0.23242186	0.036224103	-0.74181424	0.091371065	0.080273808	-1.3818851	0.29717466	-0.0060986878	-0.81987045	0.03218178	0.12225119	-0.94759418	0.42258419	-0.084135922	-0.69517062	0.507918	0.22099799	-0.93264307	0.40803882	0.041120978	-0.71240146	0.49217323	0.095950532	-0.93351819	0.83009249	-0.098362305	-0.89152283	0.86184376	0.27392163	-0.8406108	0.91890581	-0.0487949	-0.82365698	0.94654225	0.19033959	-1.0010383	0.98582847	0.079803085	-0.82118292	1.3870837	-0.074763331	-0.86529244	1.3865528	0.2510723	-0.90765845	1.4405862	0.0841429	-0.94035458	1.034328	-0.16001216	-1.0146046	1.049991	0.30902761	-0.74369139	0.85071544	-0.14942582	-0.88642886	0.81019042	0.34374933
62	0.244	-1.2876732	0.098145016	-0.027437765	-0.60353411	0.038890763	0.14143249	-1.3086183	0.25393179	-0.05691258	-0.75119348	0.054751525	0.17194736	-1.2858158	0.23377289	0.037382373	-0.74168967	0.091365382	0.080260925	-1.3691157	0.29862475	-0.0052065324	-0.81993784	0.032196617	0.12219539	-0.93450048	0.4235509	-0.083093326	-0.69213901	0.50768278	0.22110609	-0.92023695	0.40901904	0.042329535	-0.70967411	0.49193391	0.096098015	-0.92695049	0.83117583	-0.097923348	-0.88576175	0.86348728	0.27420979	-0.83486501	0.92036903	-0.048589039	-0.8175336	0.94794253	0.19042997	-0.99523854	0.98734036	0.080224491	-0.81559133	1.388328	-0.074714268	-0.85864605	1.3880231	0.25124305	-0.90162523	1.4420792	0.084322951	-0.93525793	1.0357296	-0.15921331	-1.0075311	1.0511746	0.30984724	-0.74053733	0.8501205	-0.14945029	-0.87813281	0.81179903	0.34360941
63	0.248	-1.2734737	0.099871812	-0.027211571	-0.60356124	0.038894226	0.1414087	-1.2952408	0.25541695	-0.056004185	-0.75115182	0.054761038	0.17191773	-1.2729954	0.2350459	0.038499837	-0.74156819	0.091373447	0.080258382	-1.3562407	0.29972535	-0.0044233692	-0.81999908	0.032219955	0.12214877	-0.92140101	0.4247466	-0.082014704	-0.68916719	0.50736449	0.22121805	-0.90770574	0.41006285	0.043546597	-0.70697701	0.49171322	0.096241719	-0.92034239	0.83236734	-0.097505771	-0.87996311	0.86517102	0.27447956	-0.82916386	0.92192573	-0.048374883	-0.81133733	0.94940782	0.19051584	-0.98953351	0.98887493	0.080598194	-0.81001661	1.3896413	-0.074670069	-0.85203167	1.3895529	0.2514015	-0.8955514	1.4436052	0.084679356	-0.93026838	1.037269	-0.15821919	-1.0004773	1.0524401	0.31071618	-0.73746332	0.84965467	-0.14949605	-0.86979886	0.81352564	0.34345833
64	0.252	-1.2590281	0.10129264	-0.026811098	-0.60358887	0.038902782	0.14140468	-1.2817082	0.25655369	-0.055123336	-0.75112551	0.054776316	0.17189793	-1.2596922	0.23631508	0.039398379	-0.74145103	0.091395608	0.080269564	-1.3432628	0.30048677	-0.0036825438	-0.82005296	0.032253255	0.12210799	-0.90848742	0.42613016	-0.080897957	-0.6862196	0.50695864	0.22131563	-0.89502041	0.41114889	0.044804064	-0.70430444	0.49151532	0.096387914	-0.91391677	0.83364227	-0.097188581	-0.87417219	0.86686192	0.27473037	-0.82349539	0.92355492	-0.048157031	-0.80502666	0.9509226	0.19061027	-0.9838779	0.99044507	0.080968489	-0.80445591	1.3910285	-0.074630139	-0.84545089	1.3911416	0.25154686	-0.88950753	1.4451683	0.085049288	-0.92519557	1.0389927	-0.15672431	-0.9934473	1.0537736	0.31160867	-0.73447017	0.84930659	-0.14955434	-0.8613693	0.81537667	0.34331564
65	0.256	-1.2443957	0.10239725	-0.02620498	-0.60361958	0.038914383	0.14142121	-1.2680519	0.25737922	-0.054274868	-0.75111729	0.054791074	0.17188896	-1.2454541	0.23752104	0.039960297	-0.74134208	0.091428306	0.080294806	-1.3301851	0.30091382	-0.0029396128	-0.82009956	0.032295817	0.12206644	-0.89580619	0.42765533	-0.079763045	-0.68344139	0.506544	0.22144888	-0.88246584	0.41235452	0.046119841	-0.70170496	0.49135269	0.096547163	-0.90766553	0.83498919	-0.096974338	-0.86873531	0.86851117	0.27492436	-0.8178562	0.92523933	-0.047937544	-0.798623	0.95247176	0.19072942	-0.97821434	0.99207345	0.081390701	-0.79892367	1.3924848	-0.0746039	-0.83889724	1.3927855	0.25167706	-0.88352527	1.4467758	0.085385126	-0.91987722	1.0408838	-0.15462511	-0.98644475	1.0551651	0.31250516	-0.7315609	0.84906267	-0.14961574	-0.85286542	0.81733386	0.34318882
66	0.26	-1.2295997	0.10320619	-0.025378095	-0.60365382	0.038931364	0.14145634	-1.2543051	0.25791785	-0.053439836	-0.75112987	0.054802817	0.17189121	-1.2305305	0.23852293	0.040331915	-0.74124849	0.09146811	0.080333285	-1.3170171	0.30100505	-0.0021948326	-0.82013927	0.032347131	0.12201792	-0.88320873	0.42930488	-0.07864289	-0.68106443	0.50621475	0.22171189	-0.87024713	0.4137682	0.047480826	-0.69925542	0.49123603	0.096745155	-0.90138338	0.83641977	-0.096799446	-0.86419454	0.87005314	0.27499954	-0.81221381	0.92698238	-0.047697644	-0.79226246	0.95403536	0.19088149	-0.97251413	0.99376327	0.081896725	-0.79343206	1.3940003	-0.074596941	-0.83237252	1.3944804	0.25179702	-0.87760294	1.448438	0.085701535	-0.91440336	1.0428453	-0.15233104	-0.97947613	1.056615	0.31339761	-0.7287349	0.84891975	-0.14967289	-0.84434323	0.81937635	0.34307549
67	0.264	-1.2145728	0.10376716	-0.024364979	-0.60369082	0.038958373	0.14150695	-1.2404892	0.25816479	-0.052594729	-0.75117541	0.054815314	0.17190433	-1.2156178	0.23922012	0.040777908	-0.74117623	0.09151418	0.080384335	-1.3037729	0.30075585	-0.0014849118	-0.82017338	0.032408229	0.12195872	-0.87052471	0.43108133	-0.077574294	-0.67909996	0.5059854	0.22211169	-0.85818476	0.41542197	0.048843072	-0.69697575	0.49116003	0.096995439	-0.89491073	0.83795153	-0.096614181	-0.86078254	0.87145519	0.27492877	-0.80651811	0.9288004	-0.047407824	-0.78618091	0.95558796	0.19105759	-0.96682152	0.99549719	0.082413887	-0.78797657	1.3955654	-0.07460395	-0.82588035	1.3962191	0.2519127	-0.87169632	1.4501562	0.086011767	-0.90905822	1.0447917	-0.15044919	-0.97254966	1.0581256	0.31428564	-0.72598598	0.84888096	-0.14971834	-0.83583931	0.82149601	0.34296602
68	0.268	-1.1991787	0.10412824	-0.023240535	-0.60373368	0.038995732	0.14157025	-1.2265895	0.25810999	-0.051744354	-0.75128018	0.05483722	0.17192864	-1.2010191	0.23961563	0.041402446	-0.7411263	0.091567061	0.080445696	-1.290462	0.30016216	-0.00085867701	-0.82020656	0.032479671	0.12188764	-0.85768	0.43297882	-0.076587999	-0.67732596	0.50579742	0.22255334	-0.84581299	0.41732069	0.050136975	-0.69480762	0.49110644	0.097277864	-0.88830483	0.83958989	-0.096414032	-0.85791443	0.87277323	0.27478892	-0.80077422	0.93069963	-0.047059733	-0.78056141	0.9571111	0.19124304	-0.96120758	0.99725747	0.082818867	-0.78255121	1.3971727	-0.074620505	-0.81941106	1.3979897	0.25202193	-0.86572475	1.4519026	0.086295096	-0.90403477	1.0467148	-0.14921282	-0.96566857	1.059689	0.31517114	-0.72331047	0.84894664	-0.14974786	-0.82736775	0.82369051	0.34285033
69	0.272	-1.183326	0.10431464	-0.022058036	-0.60379141	0.039035192	0.14164474	-1.2125669	0.2577642	-0.050910446	-0.75146919	0.054876814	0.17196404	-1.1864775	0.23976546	0.042135184	-0.74109545	0.091627182	0.080512884	-1.2770833	0.29921627	-0.00035000189	-0.82024667	0.032557622	0.12180459	-0.84473792	0.43498628	-0.075656998	-0.67558215	0.50560149	0.22296436	-0.83280421	0.41945639	0.051308974	-0.69268469	0.4910597	0.097551675	-0.88174571	0.84132548	-0.096206558	-0.85446728	0.87412249	0.27473672	-0.79507205	0.9326646	-0.04667689	-0.77533678	0.95860473	0.19143831	-0.955646	0.99903818	0.083157084	-0.77716446	1.3988165	-0.074653437	-0.81295922	1.3997861	0.25212149	-0.85964452	1.4536305	0.086522072	-0.89930186	1.0486405	-0.14841109	-0.95882826	1.0612902	0.31605509	-0.72070528	0.84911127	-0.14976338	-0.81893725	0.82595236	0.34272853
70	0.276	-1.1670416	0.10433007	-0.02081504	-0.60387036	0.039066427	0.1417293	-1.1984015	0.25714338	-0.050093357	-0.75173001	0.054933645	0.17200405	-1.1716598	0.23970981	0.04287406	-0.74107871	0.091694434	0.080580716	-1.2636357	0.29790741	4.9116906e-05	-0.8202985	0.032635435	0.12171104	-0.83188808	0.43711242	-0.074668703	-0.67386662	0.50539104	0.22334303	-0.819412	0.4217784	0.052388234	-0.69059399	0.49101271	0.097784852	-0.87530437	0.84314472	-0.095986125	-0.84975011	0.87558025	0.27487247	-0.78948582	0.93467231	-0.046290912	-0.77021138	0.9600839	0.19166474	-0.95003876	1.0008362	0.083598156	-0.77182849	1.4004908	-0.07471	-0.80654391	1.4016136	0.25221592	-0.85352239	1.4553215	0.08670316	-0.89472149	1.0505855	-0.14771394	-0.95201997	1.0629207	0.31693727	-0.71815959	0.84936653	-0.14977192	-0.81055191	0.82826952	0.34260857
